<svg width="44" height="48" viewBox="0 0 44 48" fill="none" xmlns="http://www.w3.org/2000/svg">
<g filter="url(#filter0_b_503_5012)">
<path fill-rule="evenodd" clip-rule="evenodd" d="M0.101124 6.27577C0.101124 2.2446 4.42306 -0.310832 7.95523 1.63186L40.5763 19.5735C44.2374 21.5871 44.2374 26.8477 40.5763 28.8613L7.95522 46.8029C4.42305 48.7456 0.101124 46.1901 0.101124 42.159V6.27577Z" fill="url(#paint0_linear_503_5012)" fill-opacity="0.3"/>
<path d="M0.601124 6.27577C0.601124 2.62491 4.51532 0.310551 7.71427 2.06997L40.3354 20.0116C43.6511 21.8352 43.6511 26.5995 40.3354 28.4232L7.71426 46.3648C4.51532 48.1242 0.601124 45.8098 0.601124 42.159V6.27577Z" stroke="url(#paint1_linear_503_5012)" stroke-opacity="0.5"/>
</g>
<defs>
<filter id="filter0_b_503_5012" x="-11.8989" y="-11.0317" width="67.221" height="70.4983" filterUnits="userSpaceOnUse" color-interpolation-filters="sRGB">
<feFlood flood-opacity="0" result="BackgroundImageFix"/>
<feGaussianBlur in="BackgroundImageFix" stdDeviation="6"/>
<feComposite in2="SourceAlpha" operator="in" result="effect1_backgroundBlur_503_5012"/>
<feBlend mode="normal" in="SourceGraphic" in2="effect1_backgroundBlur_503_5012" result="shape"/>
</filter>
<linearGradient id="paint0_linear_503_5012" x1="21.7116" y1="0.968262" x2="21.7116" y2="47.4665" gradientUnits="userSpaceOnUse">
<stop offset="0.147231" stop-color="white"/>
<stop offset="0.42761" stop-color="white" stop-opacity="0.5"/>
<stop offset="1" stop-color="#1600FD" stop-opacity="0"/>
</linearGradient>
<linearGradient id="paint1_linear_503_5012" x1="21.7116" y1="0.968262" x2="21.7116" y2="47.4665" gradientUnits="userSpaceOnUse">
<stop stop-color="white" stop-opacity="0"/>
<stop offset="1" stop-color="white"/>
</linearGradient>
</defs>
</svg>
