<svg xmlns="http://www.w3.org/2000/svg" version="1.1" xmlns:xlink="http://www.w3.org/1999/xlink" width="34" height="34" x="0" y="0" viewBox="0 0 512 512" style="enable-background:new 0 0 512 512" xml:space="preserve" class=""><g><path fill="#FBFBFB" d="M32 96h448v320H32z" opacity="1" data-original="#fbfbfb"></path><path fill="#E92B2B" d="M32 96h448v104H32z" opacity="1" data-original="#e92b2b" class=""></path><path fill="#1D1D1D" d="M32 312h448v104H32z" opacity="1" data-original="#1d1d1d"></path><path fill="#FFE70E" d="m253.145 221.726-9.138 18.276-20.871-6.957a3.2 3.2 0 0 0-4.077 2.116l-9.436 31.452c-.713 2.377 1.434 4.626 3.841 4.024l26.543-6.635-4 20a21.709 21.709 0 0 0 19.416 12h1.167c8.223 0 15.74-4.646 19.417-12l-4-20 26.542 6.635c2.408.602 4.554-1.647 3.841-4.024l-9.435-31.452a3.2 3.2 0 0 0-4.077-2.116l-20.871 6.957-9.138-18.276c-1.179-2.359-4.545-2.359-5.724 0z" opacity="1" data-original="#ffe70e"></path></g></svg>